<svg width="89" height="24" viewBox="0 0 89 24" fill="none" xmlns="http://www.w3.org/2000/svg">
<path d="M4.848 9.088C5.60533 9.088 6.26667 9.25333 6.832 9.584C7.408 9.91467 7.83467 10.3307 8.112 10.832V9.232H9.584V18.192C9.584 18.992 9.41333 19.7013 9.072 20.32C8.73067 20.9493 8.24 21.44 7.6 21.792C6.97067 22.144 6.23467 22.32 5.392 22.32C4.24 22.32 3.28 22.048 2.512 21.504C1.744 20.96 1.29067 20.2187 1.152 19.28H2.592C2.752 19.8133 3.08267 20.24 3.584 20.56C4.08533 20.8907 4.688 21.056 5.392 21.056C6.192 21.056 6.84267 20.8053 7.344 20.304C7.856 19.8027 8.112 19.0987 8.112 18.192V16.352C7.824 16.864 7.39733 17.2907 6.832 17.632C6.26667 17.9733 5.60533 18.144 4.848 18.144C4.06933 18.144 3.36 17.952 2.72 17.568C2.09067 17.184 1.59467 16.6453 1.232 15.952C0.869333 15.2587 0.688 14.4693 0.688 13.584C0.688 12.688 0.869333 11.904 1.232 11.232C1.59467 10.5493 2.09067 10.0213 2.72 9.648C3.36 9.27467 4.06933 9.088 4.848 9.088ZM8.112 13.6C8.112 12.9387 7.97867 12.3627 7.712 11.872C7.44533 11.3813 7.08267 11.008 6.624 10.752C6.176 10.4853 5.68 10.352 5.136 10.352C4.592 10.352 4.096 10.48 3.648 10.736C3.2 10.992 2.84267 11.3653 2.576 11.856C2.30933 12.3467 2.176 12.9227 2.176 13.584C2.176 14.256 2.30933 14.8427 2.576 15.344C2.84267 15.8347 3.2 16.2133 3.648 16.48C4.096 16.736 4.592 16.864 5.136 16.864C5.68 16.864 6.176 16.736 6.624 16.48C7.08267 16.2133 7.44533 15.8347 7.712 15.344C7.97867 14.8427 8.112 14.2613 8.112 13.6ZM15.8685 18.144C15.0472 18.144 14.3005 17.9573 13.6285 17.584C12.9672 17.2107 12.4445 16.6827 12.0605 16C11.6872 15.3067 11.5005 14.5067 11.5005 13.6C11.5005 12.704 11.6925 11.9147 12.0765 11.232C12.4712 10.5387 13.0045 10.0107 13.6765 9.648C14.3485 9.27467 15.1005 9.088 15.9325 9.088C16.7645 9.088 17.5165 9.27467 18.1885 9.648C18.8605 10.0107 19.3885 10.5333 19.7725 11.216C20.1672 11.8987 20.3645 12.6933 20.3645 13.6C20.3645 14.5067 20.1618 15.3067 19.7565 16C19.3618 16.6827 18.8232 17.2107 18.1405 17.584C17.4578 17.9573 16.7005 18.144 15.8685 18.144ZM15.8685 16.864C16.3912 16.864 16.8818 16.7413 17.3405 16.496C17.7992 16.2507 18.1672 15.8827 18.4445 15.392C18.7325 14.9013 18.8765 14.304 18.8765 13.6C18.8765 12.896 18.7378 12.2987 18.4605 11.808C18.1832 11.3173 17.8205 10.9547 17.3725 10.72C16.9245 10.4747 16.4392 10.352 15.9165 10.352C15.3832 10.352 14.8925 10.4747 14.4445 10.72C14.0072 10.9547 13.6552 11.3173 13.3885 11.808C13.1218 12.2987 12.9885 12.896 12.9885 13.6C12.9885 14.3147 13.1165 14.9173 13.3725 15.408C13.6392 15.8987 13.9912 16.2667 14.4285 16.512C14.8658 16.7467 15.3458 16.864 15.8685 16.864ZM26.1029 18.144C25.2815 18.144 24.5349 17.9573 23.8629 17.584C23.2015 17.2107 22.6789 16.6827 22.2949 16C21.9215 15.3067 21.7349 14.5067 21.7349 13.6C21.7349 12.704 21.9269 11.9147 22.3109 11.232C22.7055 10.5387 23.2389 10.0107 23.9109 9.648C24.5829 9.27467 25.3349 9.088 26.1669 9.088C26.9989 9.088 27.7509 9.27467 28.4229 9.648C29.0949 10.0107 29.6229 10.5333 30.0069 11.216C30.4015 11.8987 30.5989 12.6933 30.5989 13.6C30.5989 14.5067 30.3962 15.3067 29.9909 16C29.5962 16.6827 29.0575 17.2107 28.3749 17.584C27.6922 17.9573 26.9349 18.144 26.1029 18.144ZM26.1029 16.864C26.6255 16.864 27.1162 16.7413 27.5749 16.496C28.0335 16.2507 28.4015 15.8827 28.6789 15.392C28.9669 14.9013 29.1109 14.304 29.1109 13.6C29.1109 12.896 28.9722 12.2987 28.6949 11.808C28.4175 11.3173 28.0549 10.9547 27.6069 10.72C27.1589 10.4747 26.6735 10.352 26.1509 10.352C25.6175 10.352 25.1269 10.4747 24.6789 10.72C24.2415 10.9547 23.8895 11.3173 23.6229 11.808C23.3562 12.2987 23.2229 12.896 23.2229 13.6C23.2229 14.3147 23.3509 14.9173 23.6069 15.408C23.8735 15.8987 24.2255 16.2667 24.6629 16.512C25.1002 16.7467 25.5802 16.864 26.1029 16.864ZM31.9693 13.584C31.9693 12.688 32.1506 11.904 32.5133 11.232C32.8759 10.5493 33.3719 10.0213 34.0013 9.648C34.6413 9.27467 35.3559 9.088 36.1453 9.088C36.8279 9.088 37.4626 9.248 38.0493 9.568C38.6359 9.87733 39.0839 10.288 39.3933 10.8V6.16H40.8653V18H39.3933V16.352C39.1053 16.8747 38.6786 17.3067 38.1133 17.648C37.5479 17.9787 36.8866 18.144 36.1293 18.144C35.3506 18.144 34.6413 17.952 34.0013 17.568C33.3719 17.184 32.8759 16.6453 32.5133 15.952C32.1506 15.2587 31.9693 14.4693 31.9693 13.584ZM39.3933 13.6C39.3933 12.9387 39.2599 12.3627 38.9933 11.872C38.7266 11.3813 38.3639 11.008 37.9053 10.752C37.4573 10.4853 36.9613 10.352 36.4173 10.352C35.8733 10.352 35.3773 10.48 34.9293 10.736C34.4813 10.992 34.1239 11.3653 33.8573 11.856C33.5906 12.3467 33.4573 12.9227 33.4573 13.584C33.4573 14.256 33.5906 14.8427 33.8573 15.344C34.1239 15.8347 34.4813 16.2133 34.9293 16.48C35.3773 16.736 35.8733 16.864 36.4173 16.864C36.9613 16.864 37.4573 16.736 37.9053 16.48C38.3639 16.2133 38.7266 15.8347 38.9933 15.344C39.2599 14.8427 39.3933 14.2613 39.3933 13.6Z" fill="#944FFA"/>
<path d="M53.8698 9.072C54.5524 9.072 55.1604 9.216 55.6938 9.504C56.2271 9.78133 56.6484 10.2027 56.9578 10.768C57.2671 11.3333 57.4218 12.0213 57.4218 12.832V18H55.9818V13.04C55.9818 12.1653 55.7631 11.4987 55.3258 11.04C54.8991 10.5707 54.3178 10.336 53.5818 10.336C52.8244 10.336 52.2218 10.5813 51.7738 11.072C51.3258 11.552 51.1018 12.2507 51.1018 13.168V18H49.6618V13.04C49.6618 12.1653 49.4431 11.4987 49.0058 11.04C48.5791 10.5707 47.9978 10.336 47.2618 10.336C46.5044 10.336 45.9018 10.5813 45.4538 11.072C45.0058 11.552 44.7818 12.2507 44.7818 13.168V18H43.3258V9.232H44.7818V10.496C45.0698 10.0373 45.4538 9.68533 45.9338 9.44C46.4244 9.19467 46.9631 9.072 47.5498 9.072C48.2858 9.072 48.9364 9.23733 49.5018 9.568C50.0671 9.89867 50.4884 10.384 50.7658 11.024C51.0111 10.4053 51.4164 9.92533 51.9818 9.584C52.5471 9.24267 53.1764 9.072 53.8698 9.072ZM63.6341 18.144C62.8128 18.144 62.0661 17.9573 61.3941 17.584C60.7328 17.2107 60.2101 16.6827 59.8261 16C59.4528 15.3067 59.2661 14.5067 59.2661 13.6C59.2661 12.704 59.4581 11.9147 59.8421 11.232C60.2368 10.5387 60.7701 10.0107 61.4421 9.648C62.1141 9.27467 62.8661 9.088 63.6981 9.088C64.5301 9.088 65.2821 9.27467 65.9541 9.648C66.6261 10.0107 67.1541 10.5333 67.5381 11.216C67.9328 11.8987 68.1301 12.6933 68.1301 13.6C68.1301 14.5067 67.9275 15.3067 67.5221 16C67.1275 16.6827 66.5888 17.2107 65.9061 17.584C65.2235 17.9573 64.4661 18.144 63.6341 18.144ZM63.6341 16.864C64.1568 16.864 64.6475 16.7413 65.1061 16.496C65.5648 16.2507 65.9328 15.8827 66.2101 15.392C66.4981 14.9013 66.6421 14.304 66.6421 13.6C66.6421 12.896 66.5035 12.2987 66.2261 11.808C65.9488 11.3173 65.5861 10.9547 65.1381 10.72C64.6901 10.4747 64.2048 10.352 63.6821 10.352C63.1488 10.352 62.6581 10.4747 62.2101 10.72C61.7728 10.9547 61.4208 11.3173 61.1541 11.808C60.8875 12.2987 60.7541 12.896 60.7541 13.6C60.7541 14.3147 60.8821 14.9173 61.1381 15.408C61.4048 15.8987 61.7568 16.2667 62.1941 16.512C62.6315 16.7467 63.1115 16.864 63.6341 16.864ZM73.8685 18.144C73.0472 18.144 72.3005 17.9573 71.6285 17.584C70.9672 17.2107 70.4445 16.6827 70.0605 16C69.6872 15.3067 69.5005 14.5067 69.5005 13.6C69.5005 12.704 69.6925 11.9147 70.0765 11.232C70.4712 10.5387 71.0045 10.0107 71.6765 9.648C72.3485 9.27467 73.1005 9.088 73.9325 9.088C74.7645 9.088 75.5165 9.27467 76.1885 9.648C76.8605 10.0107 77.3885 10.5333 77.7725 11.216C78.1672 11.8987 78.3645 12.6933 78.3645 13.6C78.3645 14.5067 78.1618 15.3067 77.7565 16C77.3618 16.6827 76.8232 17.2107 76.1405 17.584C75.4578 17.9573 74.7005 18.144 73.8685 18.144ZM73.8685 16.864C74.3912 16.864 74.8818 16.7413 75.3405 16.496C75.7992 16.2507 76.1672 15.8827 76.4445 15.392C76.7325 14.9013 76.8765 14.304 76.8765 13.6C76.8765 12.896 76.7378 12.2987 76.4605 11.808C76.1832 11.3173 75.8205 10.9547 75.3725 10.72C74.9245 10.4747 74.4392 10.352 73.9165 10.352C73.3832 10.352 72.8925 10.4747 72.4445 10.72C72.0072 10.9547 71.6552 11.3173 71.3885 11.808C71.1218 12.2987 70.9885 12.896 70.9885 13.6C70.9885 14.3147 71.1165 14.9173 71.3725 15.408C71.6392 15.8987 71.9912 16.2667 72.4285 16.512C72.8658 16.7467 73.3458 16.864 73.8685 16.864ZM83.5429 16.656L86.2629 9.232H87.8149L84.3749 18H82.6789L79.2389 9.232H80.8069L83.5429 16.656Z" fill="white"/>
<rect x="41" y="22" width="48" height="2" fill="#944FFA"/>
</svg>
